<svg width="512" height="512" viewBox="0 0 512 512" fill="none" xmlns="http://www.w3.org/2000/svg">
  <rect width="512" height="512" rx="128" fill="url(#bg)"/>
  <path d="M336 124C336 187.961 284.961 239 221 239H200V218C200 154.039 251.039 103 315 103H336V124Z" fill="#F7FFF6"/>
  <path d="M187 230H212C282.692 230 340 287.308 340 358V379H315C244.308 379 187 321.692 187 251V230Z" fill="#E5F7D8"/>
  <path d="M266 215C266 289.006 238.5 352 184 403" stroke="#F7FFF6" stroke-width="24" stroke-linecap="round"/>
  <path d="M334 364C309.333 344.667 281.333 334 250 332" stroke="#FFC857" stroke-width="18" stroke-linecap="round"/>
  <path d="M188 406H356" stroke="#F7FFF6" stroke-width="24" stroke-linecap="round"/>
  <defs>
    <linearGradient id="bg" x1="63" y1="42" x2="425" y2="454" gradientUnits="userSpaceOnUse">
      <stop stop-color="#1E5C3A"/>
      <stop offset="0.55" stop-color="#2F7F4D"/>
      <stop offset="1" stop-color="#C68A2E"/>
    </linearGradient>
  </defs>
</svg>
